<svg width="526" height="87" viewBox="0 0 526 87" fill="none" xmlns="http://www.w3.org/2000/svg">
<g clip-path="url(#clip0_2_32)">
<path d="M121.242 30.8828H107.719V24.3672H142.195V30.8828H128.672V61H121.242V30.8828ZM150.117 24.3672H157.547V33.9297H180.328V24.3672H187.781V61H180.328V40.2812H157.547V61H150.117V24.3672ZM198.188 24.3672H229.383V30.8828H205.617V38.1953H226.664V44.3125H205.617V54.5078H229.875V61H198.188V24.3672ZM254.062 24.3672H285.258V30.8828H261.492V38.1953H282.539V44.3125H261.492V54.5078H285.75V61H254.062V24.3672ZM304.406 42.3906L290.32 24.3672H299.414L309.141 36.9766L318.914 24.3672H327.867L313.523 42.3203L328.359 61H319.242L308.812 47.8281L298.148 61H289.172L304.406 42.3906ZM333.938 24.3672H353.25C356.062 24.3672 358.5 24.6719 360.562 25.2812C362.625 25.8906 364.336 26.7734 365.695 27.9297C367.055 29.0703 368.062 30.4688 368.719 32.125C369.391 33.7812 369.727 35.6484 369.727 37.7266C369.727 39.6797 369.398 41.4844 368.742 43.1406C368.086 44.7969 367.078 46.2344 365.719 47.4531C364.375 48.6562 362.672 49.6016 360.609 50.2891C358.547 50.9609 356.109 51.2969 353.297 51.2969L341.367 51.2734V61H333.938V24.3672ZM353.438 44.8516C354.844 44.8516 356.07 44.6875 357.117 44.3594C358.18 44.0156 359.062 43.5391 359.766 42.9297C360.484 42.3047 361.016 41.5547 361.359 40.6797C361.719 39.7891 361.898 38.8047 361.898 37.7266C361.898 35.5547 361.188 33.8672 359.766 32.6641C358.359 31.4453 356.25 30.8359 353.438 30.8359H341.367V44.8516H353.438ZM375.703 42.5781C375.703 39.8125 376.211 37.2812 377.227 34.9844C378.242 32.6875 379.664 30.7188 381.492 29.0781C383.336 27.4219 385.539 26.1406 388.102 25.2344C390.68 24.3281 393.531 23.875 396.656 23.875C399.766 23.875 402.609 24.3281 405.188 25.2344C407.766 26.1406 409.969 27.4219 411.797 29.0781C413.641 30.7188 415.07 32.6875 416.086 34.9844C417.102 37.2812 417.609 39.8125 417.609 42.5781C417.609 45.3594 417.102 47.9141 416.086 50.2422C415.07 52.5547 413.641 54.5469 411.797 56.2188C409.969 57.8906 407.766 59.1953 405.188 60.1328C402.609 61.0547 399.766 61.5156 396.656 61.5156C393.531 61.5156 390.68 61.0547 388.102 60.1328C385.539 59.1953 383.336 57.8906 381.492 56.2188C379.664 54.5469 378.242 52.5547 377.227 50.2422C376.211 47.9141 375.703 45.3594 375.703 42.5781ZM383.133 42.5781C383.133 44.4688 383.469 46.1719 384.141 47.6875C384.828 49.2031 385.773 50.5 386.977 51.5781C388.195 52.6406 389.625 53.4609 391.266 54.0391C392.922 54.6172 394.719 54.9062 396.656 54.9062C398.594 54.9062 400.383 54.6172 402.023 54.0391C403.68 53.4609 405.109 52.6406 406.312 51.5781C407.516 50.5 408.461 49.2031 409.148 47.6875C409.836 46.1719 410.18 44.4688 410.18 42.5781C410.18 40.6875 409.836 38.9922 409.148 37.4922C408.461 35.9922 407.516 34.7266 406.312 33.6953C405.109 32.6484 403.68 31.8516 402.023 31.3047C400.383 30.7578 398.594 30.4844 396.656 30.4844C394.719 30.4844 392.922 30.7578 391.266 31.3047C389.625 31.8516 388.195 32.6484 386.977 33.6953C385.773 34.7266 384.828 35.9922 384.141 37.4922C383.469 38.9922 383.133 40.6875 383.133 42.5781Z" fill="black"/>
<ellipse cx="514" cy="12.5" rx="32" ry="30.5" fill="#040317"/>
<path d="M32.6372 52.4615L12.5599 139.569L-52.4452 79.8797L32.6372 52.4615Z" fill="black"/>
<rect x="274" y="77" width="220" height="21" rx="10.5" fill="black"/>
</g>
<defs>
<clipPath id="clip0_2_32">
<rect width="526" height="87" rx="16" fill="white"/>
</clipPath>
</defs>
</svg>
