<svg width="315" height="79" viewBox="0 0 315 79" fill="none" xmlns="http://www.w3.org/2000/svg">
<g filter="url(#filter0_d_54_61)">
<g clip-path="url(#clip0_54_61)">
<rect width="310" height="71" rx="35.5" fill="#43088F"/>
<path d="M46.5 38L49.3064 46.6373H58.3882L51.0409 51.9754L53.8473 60.6127L46.5 55.2746L39.1527 60.6127L41.9591 51.9754L34.6118 46.6373H43.6936L46.5 38Z" fill="#EFE8FF"/>
<path d="M61.5909 51V21.9091H73.0682C75.2746 21.9091 77.1544 22.3305 78.7074 23.1733C80.2604 24.0066 81.4441 25.1667 82.2585 26.6534C83.0824 28.1307 83.4943 29.8352 83.4943 31.767C83.4943 33.6989 83.0777 35.4034 82.2443 36.8807C81.411 38.358 80.2036 39.5085 78.6222 40.3324C77.0502 41.1562 75.1468 41.5682 72.9119 41.5682H65.5966V36.6392H71.9176C73.1013 36.6392 74.0767 36.4356 74.8438 36.0284C75.6203 35.6117 76.1979 35.0388 76.5767 34.3097C76.965 33.571 77.1591 32.7235 77.1591 31.767C77.1591 30.8011 76.965 29.9583 76.5767 29.2386C76.1979 28.5095 75.6203 27.946 74.8438 27.5483C74.0672 27.1411 73.0824 26.9375 71.8892 26.9375H67.7415V51H61.5909ZM114.222 36.4545C114.222 39.6269 113.621 42.3258 112.418 44.5511C111.225 46.7765 109.596 48.4763 107.532 49.6506C105.477 50.8153 103.166 51.3977 100.6 51.3977C98.0149 51.3977 95.6948 50.8106 93.6399 49.6364C91.585 48.4621 89.9609 46.7623 88.7678 44.5369C87.5746 42.3116 86.978 39.6174 86.978 36.4545C86.978 33.2822 87.5746 30.5833 88.7678 28.358C89.9609 26.1326 91.585 24.4375 93.6399 23.2727C95.6948 22.0985 98.0149 21.5114 100.6 21.5114C103.166 21.5114 105.477 22.0985 107.532 23.2727C109.596 24.4375 111.225 26.1326 112.418 28.358C113.621 30.5833 114.222 33.2822 114.222 36.4545ZM107.987 36.4545C107.987 34.3996 107.679 32.6667 107.063 31.2557C106.457 29.8447 105.6 28.7746 104.492 28.0455C103.384 27.3163 102.087 26.9517 100.6 26.9517C99.1134 26.9517 97.8161 27.3163 96.7081 28.0455C95.6001 28.7746 94.7384 29.8447 94.1229 31.2557C93.5168 32.6667 93.2138 34.3996 93.2138 36.4545C93.2138 38.5095 93.5168 40.2424 94.1229 41.6534C94.7384 43.0644 95.6001 44.1345 96.7081 44.8636C97.8161 45.5928 99.1134 45.9574 100.6 45.9574C102.087 45.9574 103.384 45.5928 104.492 44.8636C105.6 44.1345 106.457 43.0644 107.063 41.6534C107.679 40.2424 107.987 38.5095 107.987 36.4545ZM118.778 51V21.9091H130.256C132.462 21.9091 134.342 22.3305 135.895 23.1733C137.448 24.0066 138.632 25.1667 139.446 26.6534C140.27 28.1307 140.682 29.8352 140.682 31.767C140.682 33.6989 140.265 35.4034 139.432 36.8807C138.598 38.358 137.391 39.5085 135.81 40.3324C134.238 41.1562 132.334 41.5682 130.099 41.5682H122.784V36.6392H129.105C130.289 36.6392 131.264 36.4356 132.031 36.0284C132.808 35.6117 133.385 35.0388 133.764 34.3097C134.152 33.571 134.347 32.7235 134.347 31.767C134.347 30.8011 134.152 29.9583 133.764 29.2386C133.385 28.5095 132.808 27.946 132.031 27.5483C131.255 27.1411 130.27 26.9375 129.077 26.9375H124.929V51H118.778ZM162.646 21.9091H168.796V40.8011C168.796 42.9223 168.29 44.7784 167.276 46.3693C166.272 47.9602 164.866 49.2008 163.058 50.0909C161.249 50.9716 159.142 51.4119 156.737 51.4119C154.322 51.4119 152.21 50.9716 150.401 50.0909C148.593 49.2008 147.186 47.9602 146.183 46.3693C145.179 44.7784 144.677 42.9223 144.677 40.8011V21.9091H150.827V40.2756C150.827 41.3835 151.069 42.3684 151.552 43.2301C152.044 44.0919 152.736 44.7689 153.626 45.2614C154.516 45.7538 155.553 46 156.737 46C157.93 46 158.967 45.7538 159.847 45.2614C160.737 44.7689 161.424 44.0919 161.907 43.2301C162.399 42.3684 162.646 41.3835 162.646 40.2756V21.9091ZM173.857 51V21.9091H180.007V45.929H192.479V51H173.857ZM202.308 51H195.717L205.76 21.9091H213.686L223.714 51H217.124L209.837 28.5568H209.609L202.308 51ZM201.896 39.5653H217.464V44.3665H201.896V39.5653ZM227.216 51V21.9091H238.693C240.89 21.9091 242.765 22.3021 244.318 23.0881C245.881 23.8646 247.069 24.9678 247.884 26.3977C248.707 27.8182 249.119 29.4896 249.119 31.4119C249.119 33.3437 248.703 35.0057 247.869 36.3977C247.036 37.7803 245.829 38.8409 244.247 39.5795C242.675 40.3182 240.772 40.6875 238.537 40.6875H230.852V35.7443H237.543C238.717 35.7443 239.692 35.5833 240.469 35.2614C241.245 34.9394 241.823 34.4564 242.202 33.8125C242.59 33.1686 242.784 32.3684 242.784 31.4119C242.784 30.446 242.59 29.6316 242.202 28.9688C241.823 28.3059 241.241 27.804 240.455 27.4631C239.678 27.1127 238.698 26.9375 237.514 26.9375H233.366V51H227.216ZM242.926 37.7614L250.156 51H243.366L236.293 37.7614H242.926Z" fill="#EFE8FF"/>
<path d="M282.5 36L285.306 44.6373H294.388L287.041 49.9754L289.847 58.6127L282.5 53.2746L275.153 58.6127L277.959 49.9754L270.612 44.6373H279.694L282.5 36Z" fill="#EFE8FF"/>
<path d="M251.5 0L254.306 8.63729H263.388L256.041 13.9754L258.847 22.6127L251.5 17.2746L244.153 22.6127L246.959 13.9754L239.612 8.63729H248.694L251.5 0Z" fill="#EFE8FF"/>
<path d="M155.5 51L158.306 59.6373H167.388L160.041 64.9754L162.847 73.6127L155.5 68.2746L148.153 73.6127L150.959 64.9754L143.612 59.6373H152.694L155.5 51Z" fill="#EFE8FF"/>
<path d="M12.5 13L15.3064 21.6373H24.3882L17.0409 26.9754L19.8473 35.6127L12.5 30.2746L5.15268 35.6127L7.95911 26.9754L0.611794 21.6373H9.69357L12.5 13Z" fill="#EFE8FF"/>
<path d="M92.5 -12L95.3064 -3.36271H104.388L97.0409 1.97542L99.8473 10.6127L92.5 5.27457L85.1527 10.6127L87.9591 1.97542L80.6118 -3.36271H89.6936L92.5 -12Z" fill="#EFE8FF"/>
</g>
</g>
<defs>
<filter id="filter0_d_54_61" x="0" y="0" width="315" height="79" filterUnits="userSpaceOnUse" color-interpolation-filters="sRGB">
<feFlood flood-opacity="0" result="BackgroundImageFix"/>
<feColorMatrix in="SourceAlpha" type="matrix" values="0 0 0 0 0 0 0 0 0 0 0 0 0 0 0 0 0 0 127 0" result="hardAlpha"/>
<feOffset dx="5" dy="8"/>
<feComposite in2="hardAlpha" operator="out"/>
<feColorMatrix type="matrix" values="0 0 0 0 0 0 0 0 0 0 0 0 0 0 0 0 0 0 1 0"/>
<feBlend mode="normal" in2="BackgroundImageFix" result="effect1_dropShadow_54_61"/>
<feBlend mode="normal" in="SourceGraphic" in2="effect1_dropShadow_54_61" result="shape"/>
</filter>
<clipPath id="clip0_54_61">
<rect width="310" height="71" rx="35.5" fill="white"/>
</clipPath>
</defs>
</svg>
