<svg width="80" height="80" viewBox="0 0 80 80" fill="none" xmlns="http://www.w3.org/2000/svg">
<path d="M32.4108 4.44573C33.0568 0.625065 38.2145 -0.136845 39.9376 3.33384L49.325 22.242C50.0956 23.7941 51.778 24.6735 53.4924 24.4203L74.3759 21.3353C78.2092 20.769 80.5277 25.4388 77.7593 28.15L62.6775 42.921C61.4394 44.1335 61.1229 46.0053 61.8935 47.5574L71.281 66.4656C73.0041 69.9363 69.2793 73.5843 65.8452 71.7892L47.1367 62.01C45.601 61.2073 43.723 61.4847 42.4849 62.6972L27.4031 77.4681C24.6347 80.1794 20.0143 77.7642 20.6603 73.9435L24.1796 53.1287C24.4685 51.4201 23.6243 49.7197 22.0885 48.917L3.38003 39.1378C-0.0540167 37.3427 0.815169 32.2021 4.64846 31.6358L25.532 28.5507C27.2463 28.2975 28.6026 26.9692 28.8915 25.2605L32.4108 4.44573Z" fill="#BA99FF" stroke="#6007D0" stroke-width="2"/>
</svg>
