<svg width="32" height="31" viewBox="0 0 32 31" fill="none" xmlns="http://www.w3.org/2000/svg">
<path d="M2.5992 9.58485C0.548016 6.29738 3.90195 2.30575 7.49371 3.75971L10.2251 4.86537C11.8314 5.51561 13.6737 5.05758 14.7884 3.73084L16.684 1.47483C19.1767 -1.49184 24.0094 0.464451 23.7365 4.32972L23.529 7.26907C23.407 8.99767 24.4119 10.6083 26.0182 11.2585L28.7496 12.3642C32.3413 13.8181 31.9742 19.0188 28.2137 19.9537L25.3541 20.6647C23.6724 21.0828 22.4512 22.5362 22.3292 24.2648L22.1216 27.2042C21.8488 31.0694 16.7892 32.3273 14.738 29.0399L13.1781 26.5399C12.2608 25.0697 10.5012 24.3574 8.81945 24.7755L5.95983 25.4864C2.19941 26.4214 -0.560431 21.9981 1.93229 19.0314L3.82787 16.7754C4.94265 15.4487 5.07634 13.555 4.15902 12.0848L2.5992 9.58485Z" fill="white"/>
</svg>
