<svg width="237" height="57" viewBox="0 0 237 57" fill="none" xmlns="http://www.w3.org/2000/svg">
<g clip-path="url(#clip0_35_162)">
<path d="M27.4127 18.4019L24.6813 17.2962C20.6406 15.6605 16.8674 20.1511 19.175 23.8495L20.7348 26.3495C21.5375 27.6359 21.4205 29.2929 20.4451 30.4538L18.5495 32.7098C15.7452 36.0473 18.85 41.0234 23.0805 39.9717L25.9401 39.2607C27.4116 38.8949 28.9513 39.5182 29.7539 40.8046L31.3138 43.3045C33.6213 47.0029 39.3134 45.5878 39.6204 41.2394L39.8279 38.3C39.9347 36.7875 41.0033 35.5157 42.4748 35.1499L45.3344 34.4389C49.5648 33.3872 49.9779 27.5364 45.9372 25.9007L43.2058 24.795C41.8003 24.2261 40.921 22.8168 41.0278 21.3043L41.2353 18.3649C41.5423 14.0165 36.1055 11.8157 33.3012 15.1532L31.4056 17.4092C30.4302 18.5701 28.8182 18.9709 27.4127 18.4019Z" fill="white" stroke="black"/>
<path d="M56.7045 20.1761V14.0909H85.375V20.1761H74.6875V49H67.392V20.1761H56.7045ZM120.582 31.5455C120.582 35.3523 119.861 38.5909 118.418 41.2614C116.986 43.9318 115.031 45.9716 112.554 47.3807C110.088 48.7784 107.315 49.4773 104.236 49.4773C101.134 49.4773 98.3494 48.7727 95.8835 47.3636C93.4176 45.9545 91.4688 43.9148 90.0369 41.2443C88.6051 38.5739 87.8892 35.3409 87.8892 31.5455C87.8892 27.7386 88.6051 24.5 90.0369 21.8295C91.4688 19.1591 93.4176 17.125 95.8835 15.7273C98.3494 14.3182 101.134 13.6136 104.236 13.6136C107.315 13.6136 110.088 14.3182 112.554 15.7273C115.031 17.125 116.986 19.1591 118.418 21.8295C119.861 24.5 120.582 27.7386 120.582 31.5455ZM113.099 31.5455C113.099 29.0795 112.73 27 111.991 25.3068C111.264 23.6136 110.236 22.3295 108.906 21.4545C107.577 20.5795 106.02 20.142 104.236 20.142C102.452 20.142 100.895 20.5795 99.5653 21.4545C98.2358 22.3295 97.2017 23.6136 96.4631 25.3068C95.7358 27 95.3722 29.0795 95.3722 31.5455C95.3722 34.0114 95.7358 36.0909 96.4631 37.7841C97.2017 39.4773 98.2358 40.7614 99.5653 41.6364C100.895 42.5114 102.452 42.9489 104.236 42.9489C106.02 42.9489 107.577 42.5114 108.906 41.6364C110.236 40.7614 111.264 39.4773 111.991 37.7841C112.73 36.0909 113.099 34.0114 113.099 31.5455ZM138.425 49H126.05V14.0909H138.527C142.038 14.0909 145.061 14.7898 147.595 16.1875C150.129 17.5739 152.078 19.5682 153.442 22.1705C154.817 24.7727 155.504 27.8864 155.504 31.5114C155.504 35.1477 154.817 38.2727 153.442 40.8864C152.078 43.5 150.118 45.5057 147.561 46.9034C145.016 48.3011 141.97 49 138.425 49ZM133.43 42.6761H138.118C140.3 42.6761 142.135 42.2898 143.624 41.517C145.124 40.733 146.249 39.5227 146.999 37.8864C147.76 36.2386 148.141 34.1136 148.141 31.5114C148.141 28.9318 147.76 26.8239 146.999 25.1875C146.249 23.5511 145.129 22.3466 143.641 21.5739C142.152 20.8011 140.317 20.4148 138.135 20.4148H133.43V42.6761ZM165.02 49H157.111L169.162 14.0909H178.673L190.707 49H182.798L174.054 22.0682H173.781L165.02 49ZM164.526 35.2784H183.207V41.0398H164.526V35.2784ZM189.301 14.0909H197.568L205.528 29.125H205.869L213.83 14.0909H222.097L209.364 36.6591V49H202.034V36.6591L189.301 14.0909Z" fill="white"/>
<path d="M56.7045 20.1761H55.7045V21.1761H56.7045V20.1761ZM56.7045 14.0909V13.0909H55.7045V14.0909H56.7045ZM85.375 14.0909H86.375V13.0909H85.375V14.0909ZM85.375 20.1761V21.1761H86.375V20.1761H85.375ZM74.6875 20.1761V19.1761H73.6875V20.1761H74.6875ZM74.6875 49V50H75.6875V49H74.6875ZM67.392 49H66.392V50H67.392V49ZM67.392 20.1761H68.392V19.1761H67.392V20.1761ZM57.7045 20.1761V14.0909H55.7045V20.1761H57.7045ZM56.7045 15.0909H85.375V13.0909H56.7045V15.0909ZM84.375 14.0909V20.1761H86.375V14.0909H84.375ZM85.375 19.1761H74.6875V21.1761H85.375V19.1761ZM73.6875 20.1761V49H75.6875V20.1761H73.6875ZM74.6875 48H67.392V50H74.6875V48ZM68.392 49V20.1761H66.392V49H68.392ZM67.392 19.1761H56.7045V21.1761H67.392V19.1761ZM118.418 41.2614L117.538 40.7859L117.536 40.7888L118.418 41.2614ZM112.554 47.3807L113.047 48.2506L113.048 48.2499L112.554 47.3807ZM95.8835 47.3636L96.3797 46.4954L95.8835 47.3636ZM90.0369 41.2443L89.1556 41.7169L89.1556 41.7169L90.0369 41.2443ZM90.0369 21.8295L90.9182 22.3021L90.9182 22.3021L90.0369 21.8295ZM95.8835 15.7273L96.3766 16.5972L96.3797 16.5955L95.8835 15.7273ZM112.554 15.7273L112.058 16.5955L112.063 16.5982L112.554 15.7273ZM118.418 21.8295L117.536 22.3021L117.538 22.305L118.418 21.8295ZM111.991 25.3068L111.073 25.7015L111.075 25.7067L111.991 25.3068ZM108.906 21.4545L108.357 22.2899L108.357 22.2899L108.906 21.4545ZM99.5653 21.4545L100.115 22.2899L100.115 22.2899L99.5653 21.4545ZM96.4631 25.3068L95.5465 24.907L95.5442 24.9122L96.4631 25.3068ZM96.4631 37.7841L95.5442 38.1788L95.5465 38.1839L96.4631 37.7841ZM99.5653 41.6364L100.115 40.801L100.115 40.801L99.5653 41.6364ZM108.906 41.6364L108.357 40.801L108.357 40.801L108.906 41.6364ZM111.991 37.7841L111.075 37.3842L111.073 37.3894L111.991 37.7841ZM119.582 31.5455C119.582 35.2277 118.885 38.2941 117.538 40.7859L119.297 41.7368C120.837 38.8878 121.582 35.4769 121.582 31.5455H119.582ZM117.536 40.7888C116.188 43.3042 114.363 45.2015 112.06 46.5115L113.048 48.2499C115.7 46.7417 117.784 44.5594 119.299 41.7339L117.536 40.7888ZM112.061 46.5107C109.758 47.8159 107.158 48.4773 104.236 48.4773V50.4773C107.473 50.4773 110.418 49.7409 113.047 48.2506L112.061 46.5107ZM104.236 48.4773C101.291 48.4773 98.6808 47.8103 96.3797 46.4954L95.3874 48.2319C98.0181 49.7352 100.976 50.4773 104.236 50.4773V48.4773ZM96.3797 46.4954C94.0878 45.1857 92.2676 43.2883 90.9182 40.7718L89.1556 41.7169C90.6699 44.5412 92.7475 46.7234 95.3874 48.2319L96.3797 46.4954ZM90.9182 40.7718C89.5816 38.2788 88.8892 35.2169 88.8892 31.5455H86.8892C86.8892 35.4649 87.6286 38.8689 89.1556 41.7169L90.9182 40.7718ZM88.8892 31.5455C88.8892 27.8621 89.5818 24.7946 90.9182 22.3021L89.1556 21.357C87.6284 24.2054 86.8892 27.6152 86.8892 31.5455H88.8892ZM90.9182 22.3021C92.2672 19.7861 94.0865 17.8953 96.3766 16.5972L95.3904 14.8573C92.7487 16.3547 90.6703 18.5321 89.1556 21.357L90.9182 22.3021ZM96.3797 16.5955C98.6808 15.2806 101.291 14.6136 104.236 14.6136V12.6136C100.976 12.6136 98.0181 13.3558 95.3874 14.859L96.3797 16.5955ZM104.236 14.6136C107.156 14.6136 109.756 15.28 112.058 16.5955L113.05 14.859C110.421 13.3564 107.474 12.6136 104.236 12.6136V14.6136ZM112.063 16.5982C114.364 17.8966 116.188 19.7873 117.536 22.3021L119.299 21.357C117.784 18.5309 115.699 16.3534 113.045 14.8563L112.063 16.5982ZM117.538 22.305C118.885 24.7969 119.582 27.8632 119.582 31.5455H121.582C121.582 27.614 120.837 24.2031 119.297 21.3541L117.538 22.305ZM114.099 31.5455C114.099 28.9856 113.717 26.7609 112.908 24.907L111.075 25.7067C111.743 27.2391 112.099 29.1735 112.099 31.5455H114.099ZM112.91 24.9122C112.118 23.0682 110.974 21.618 109.456 20.6192L108.357 22.2899C109.498 23.0411 110.41 24.1591 111.073 25.7015L112.91 24.9122ZM109.456 20.6192C107.944 19.6241 106.191 19.142 104.236 19.142V21.142C105.849 21.142 107.209 21.535 108.357 22.2899L109.456 20.6192ZM104.236 19.142C102.281 19.142 100.528 19.6241 99.0156 20.6192L100.115 22.2899C101.262 21.535 102.623 21.142 104.236 21.142V19.142ZM99.0156 20.6192C97.4995 21.617 96.3499 23.0653 95.5465 24.907L97.3796 25.7067C98.0535 24.1619 98.9721 23.0421 100.115 22.2899L99.0156 20.6192ZM95.5442 24.9122C94.7486 26.7645 94.3722 28.9872 94.3722 31.5455H96.3722C96.3722 29.1718 96.723 27.2355 97.3819 25.7015L95.5442 24.9122ZM94.3722 31.5455C94.3722 34.1037 94.7486 36.3264 95.5442 38.1788L97.3819 37.3894C96.723 35.8554 96.3722 33.9191 96.3722 31.5455H94.3722ZM95.5465 38.1839C96.3499 40.0256 97.4995 41.4739 99.0156 42.4717L100.115 40.801C98.9721 40.0488 98.0535 38.929 97.3796 37.3842L95.5465 38.1839ZM99.0156 42.4717C100.528 43.4668 102.281 43.9489 104.236 43.9489V41.9489C102.623 41.9489 101.262 41.5559 100.115 40.801L99.0156 42.4717ZM104.236 43.9489C106.191 43.9489 107.944 43.4668 109.456 42.4717L108.357 40.801C107.209 41.5559 105.849 41.9489 104.236 41.9489V43.9489ZM109.456 42.4717C110.974 41.4729 112.118 40.0227 112.91 38.1788L111.073 37.3894C110.41 38.9318 109.498 40.0498 108.357 40.801L109.456 42.4717ZM112.908 38.1839C113.717 36.33 114.099 34.1053 114.099 31.5455H112.099C112.099 33.9174 111.743 35.8518 111.075 37.3842L112.908 38.1839ZM126.05 49H125.05V50H126.05V49ZM126.05 14.0909V13.0909H125.05V14.0909H126.05ZM147.595 16.1875L147.112 17.0631L147.115 17.0648L147.595 16.1875ZM153.442 22.1705L152.556 22.6346L152.558 22.6376L153.442 22.1705ZM153.442 40.8864L152.557 40.4208L152.555 40.4238L153.442 40.8864ZM147.561 46.9034L147.081 46.026L147.08 46.0269L147.561 46.9034ZM133.43 42.6761H132.43V43.6761H133.43V42.6761ZM143.624 41.517L144.084 42.4046L144.087 42.4033L143.624 41.517ZM146.999 37.8864L146.091 37.4669L146.09 37.4697L146.999 37.8864ZM146.999 25.1875L146.09 25.6042L146.092 25.6094L146.999 25.1875ZM143.641 21.5739L144.101 20.6863L144.101 20.6863L143.641 21.5739ZM133.43 20.4148V19.4148H132.43V20.4148H133.43ZM138.425 48H126.05V50H138.425V48ZM127.05 49V14.0909H125.05V49H127.05ZM126.05 15.0909H138.527V13.0909H126.05V15.0909ZM138.527 15.0909C141.905 15.0909 144.754 15.7627 147.112 17.0631L148.078 15.3119C145.368 13.8169 142.171 13.0909 138.527 13.0909V15.0909ZM147.115 17.0648C149.473 18.3548 151.282 20.2039 152.556 22.6346L154.328 21.7063C152.874 18.9325 150.785 16.793 148.075 15.3102L147.115 17.0648ZM152.558 22.6376C153.841 25.0663 154.504 28.012 154.504 31.5114H156.504C156.504 27.7607 155.793 24.4792 154.326 21.7033L152.558 22.6376ZM154.504 31.5114C154.504 35.0225 153.841 37.9802 152.557 40.4208L154.327 41.352C155.793 38.5652 156.504 35.273 156.504 31.5114H154.504ZM152.555 40.4238C151.282 42.8641 149.462 44.7244 147.081 46.026L148.041 47.7809C150.773 46.287 152.874 44.1359 154.328 41.3489L152.555 40.4238ZM147.08 46.0269C144.711 47.3275 141.839 48 138.425 48V50C142.102 50 145.32 49.2747 148.042 47.78L147.08 46.0269ZM133.43 43.6761H138.118V41.6761H133.43V43.6761ZM138.118 43.6761C140.413 43.6761 142.417 43.2701 144.084 42.4046L143.163 40.6295C141.853 41.3095 140.186 41.6761 138.118 41.6761V43.6761ZM144.087 42.4033C145.796 41.5097 147.072 40.1273 147.908 38.303L146.09 37.4697C145.426 38.9181 144.451 39.9562 143.16 40.6308L144.087 42.4033ZM147.906 38.3058C148.749 36.4824 149.141 34.2003 149.141 31.5114H147.141C147.141 34.027 146.771 35.9949 146.091 37.4669L147.906 38.3058ZM149.141 31.5114C149.141 28.8441 148.749 26.5782 147.905 24.7656L146.092 25.6094C146.771 27.0695 147.141 29.0195 147.141 31.5114H149.141ZM147.908 24.7708C147.072 22.9478 145.803 21.5694 144.101 20.6863L143.18 22.4614C144.456 23.1238 145.425 24.1545 146.09 25.6042L147.908 24.7708ZM144.101 20.6863C142.434 19.8209 140.43 19.4148 138.135 19.4148V21.4148C140.203 21.4148 141.87 21.7814 143.18 22.4614L144.101 20.6863ZM138.135 19.4148H133.43V21.4148H138.135V19.4148ZM132.43 20.4148V42.6761H134.43V20.4148H132.43ZM165.02 49V50H165.746L165.971 49.3094L165.02 49ZM157.111 49L156.166 48.6737L155.708 50H157.111V49ZM169.162 14.0909V13.0909H168.449L168.217 13.7646L169.162 14.0909ZM178.673 14.0909L179.619 13.765L179.386 13.0909H178.673V14.0909ZM190.707 49V50H192.11L191.653 48.6741L190.707 49ZM182.798 49L181.847 49.3088L182.072 50H182.798V49ZM174.054 22.0682L175.005 21.7594L174.781 21.0682H174.054V22.0682ZM173.781 22.0682V21.0682H173.055L172.83 21.7588L173.781 22.0682ZM164.526 35.2784V34.2784H163.526V35.2784H164.526ZM183.207 35.2784H184.207V34.2784H183.207V35.2784ZM183.207 41.0398V42.0398H184.207V41.0398H183.207ZM164.526 41.0398H163.526V42.0398H164.526V41.0398ZM165.02 48H157.111V50H165.02V48ZM158.056 49.3263L170.107 14.4172L168.217 13.7646L156.166 48.6737L158.056 49.3263ZM169.162 15.0909H178.673V13.0909H169.162V15.0909ZM177.728 14.4168L189.762 49.3259L191.653 48.6741L179.619 13.765L177.728 14.4168ZM190.707 48H182.798V50H190.707V48ZM183.749 48.6912L175.005 21.7594L173.103 22.377L181.847 49.3088L183.749 48.6912ZM174.054 21.0682H173.781V23.0682H174.054V21.0682ZM172.83 21.7588L164.069 48.6906L165.971 49.3094L174.732 22.3775L172.83 21.7588ZM164.526 36.2784H183.207V34.2784H164.526V36.2784ZM182.207 35.2784V41.0398H184.207V35.2784H182.207ZM183.207 40.0398H164.526V42.0398H183.207V40.0398ZM165.526 41.0398V35.2784H163.526V41.0398H165.526ZM189.301 14.0909V13.0909H187.589L188.43 14.5823L189.301 14.0909ZM197.568 14.0909L198.452 13.623L198.17 13.0909H197.568V14.0909ZM205.528 29.125L204.645 29.5929L204.926 30.125H205.528V29.125ZM205.869 29.125V30.125H206.471L206.753 29.5929L205.869 29.125ZM213.83 14.0909V13.0909H213.228L212.946 13.623L213.83 14.0909ZM222.097 14.0909L222.968 14.5823L223.809 13.0909H222.097V14.0909ZM209.364 36.6591L208.493 36.1677L208.364 36.3965V36.6591H209.364ZM209.364 49V50H210.364V49H209.364ZM202.034 49H201.034V50H202.034V49ZM202.034 36.6591H203.034V36.3965L202.905 36.1677L202.034 36.6591ZM189.301 15.0909H197.568V13.0909H189.301V15.0909ZM196.684 14.5588L204.645 29.5929L206.412 28.6571L198.452 13.623L196.684 14.5588ZM205.528 30.125H205.869V28.125H205.528V30.125ZM206.753 29.5929L214.713 14.5588L212.946 13.623L204.986 28.6571L206.753 29.5929ZM213.83 15.0909H222.097V13.0909H213.83V15.0909ZM221.226 13.5995L208.493 36.1677L210.235 37.1505L222.968 14.5823L221.226 13.5995ZM208.364 36.6591V49H210.364V36.6591H208.364ZM209.364 48H202.034V50H209.364V48ZM203.034 49V36.6591H201.034V49H203.034ZM202.905 36.1677L190.172 13.5995L188.43 14.5823L201.163 37.1505L202.905 36.1677Z" fill="black"/>
</g>
<defs>
<clipPath id="clip0_35_162">
<rect width="237" height="57" fill="white"/>
</clipPath>
</defs>
</svg>
